<?xml version="1.0" encoding="utf-8"?>
<!-- Generator: Adobe Illustrator 23.0.3, SVG Export Plug-In . SVG Version: 6.00 Build 0)  -->
<svg version="1.1" id="Layer_1" xmlns="http://www.w3.org/2000/svg" xmlns:xlink="http://www.w3.org/1999/xlink" x="0px" y="0px"
	 viewBox="0 0 1000 1000" style="enable-background:new 0 0 1000 1000;" xml:space="preserve">
<style type="text/css">
	.st0{fill:#999999;}
</style>
<rect x="169" y="147.25" class="st0" width="662" height="45"/>
<polygon class="st0" points="278.66,852.45 169.5,192.75 214.34,192.05 323.05,845.06 "/>
<rect x="443.5" y="496.75" transform="matrix(-0.1016 0.9948 -0.9948 -0.1016 1369.7837 -198.4603)" class="st0" width="662" height="45"/>
<rect x="278.5" y="815.75" class="st0" width="484" height="37"/>
<rect x="229.5" y="460.75" class="st0" width="555" height="40"/>
<rect x="256.5" y="564.75" class="st0" width="518" height="40"/>
<rect x="262.5" y="684.75" class="st0" width="506" height="40"/>
<rect x="193.5" y="225.75" class="st0" width="623" height="40"/>
<rect x="213.5" y="347.75" class="st0" width="576" height="40"/>
<rect x="315.5" y="175.75" class="st0" width="49" height="654"/>
<rect x="442.5" y="173.75" class="st0" width="49" height="654"/>
<rect x="563.5" y="183.75" class="st0" width="49" height="654"/>
<rect x="674.5" y="173.75" class="st0" width="49" height="654"/>
</svg>
