<?xml version="1.0" encoding="utf-8"?>
<!-- Generator: Adobe Illustrator 23.0.3, SVG Export Plug-In . SVG Version: 6.00 Build 0)  -->
<svg version="1.1" id="Layer_1" xmlns="http://www.w3.org/2000/svg" xmlns:xlink="http://www.w3.org/1999/xlink" x="0px" y="0px"
	 viewBox="0 0 1000 1000" style="enable-background:new 0 0 1000 1000;" xml:space="preserve">
<style type="text/css">
	.st0{fill:#FFD262;}
	.st1{fill:#FDEECA;}
	.st2{fill:#EBAB06;}
	.st3{fill:#999999;}
	.st4{fill:#FF0000;}
</style>
<rect x="438.98" y="122.44" transform="matrix(0.7757 0.6311 -0.6311 0.7757 399.9073 -197.8835)" class="st0" width="78.67" height="682.33"/>
<polygon points="219.44,844.69 225.76,774.39 232.09,704.09 293.31,753.91 354.53,803.72 286.98,824.21 "/>
<polygon class="st1" points="266.95,786.72 227.57,749.92 232.41,704.1 293.63,753.92 354.86,803.74 305.88,818.4 "/>
<rect x="500.51" y="172.5" transform="matrix(0.7757 0.6311 -0.6311 0.7757 445.3066 -225.4844)" class="st2" width="78.67" height="682.33"/>
<rect x="656.71" y="193.4" transform="matrix(0.7757 0.6311 -0.6311 0.7757 297.9638 -416.9554)" class="st3" width="157.6" height="34.52"/>
<rect x="684.65" y="149.32" transform="matrix(0.7757 0.6311 -0.6311 0.7757 282.6168 -442.3666)" class="st4" width="157.86" height="54.11"/>
</svg>
