<?xml version="1.0" encoding="utf-8"?>
<!-- Generator: Adobe Illustrator 23.0.3, SVG Export Plug-In . SVG Version: 6.00 Build 0)  -->
<svg version="1.1" id="Layer_1" xmlns="http://www.w3.org/2000/svg" xmlns:xlink="http://www.w3.org/1999/xlink" x="0px" y="0px"
	 viewBox="0 0 1000 1000" style="enable-background:new 0 0 1000 1000;" xml:space="preserve">
<style type="text/css">
	.st0{fill:#22B573;}
	.st1{display:none;fill:#22B573;}
</style>
<path class="st0" d="M280-156"/>
<path class="st0" d="M721,478"/>
<path class="st0" d="M1000,1000H0V75c37.31,33.45,96.1,73.78,174,76c40.77,1.16,55.79-9,140-27c102.14-21.84,210.01-44.9,270-25
	c61.22,20.31,32.27,71.99,72,77c49.12,6.19,92.19-72.99,230-96c44.88-7.49,86.22-6.76,114-5C1000,383.33,1000,691.67,1000,1000z"/>
<path class="st1" d="M1000,1000H500V75c18.66,33.45,48.05,73.78,87,76c20.38,1.16,27.9-9,70-27c51.07-21.84,105.01-44.9,135-25
	c30.61,20.31,16.14,71.99,36,77c24.56,6.19,46.09-72.99,115-96c22.44-7.49,43.11-6.76,57-5C1000,383.33,1000,691.67,1000,1000z"/>
</svg>
